<svg width="88" height="80" viewBox="0 0 88 80" fill="none" xmlns="http://www.w3.org/2000/svg">
<path d="M78.198 43.0768C76.2583 43.0795 74.3669 43.6724 72.7831 44.7741C71.1994 45.8758 70.0009 47.4325 69.3519 49.2307H61.6846L56.1423 32.8729C55.9309 32.2496 55.5223 31.7093 54.9762 31.331C54.4302 30.9526 53.7753 30.7562 53.1076 30.7704C52.4398 30.7846 51.7942 31.0086 51.2652 31.4098C50.7363 31.811 50.3517 32.3682 50.1679 32.9998L41.4665 62.9538L31.2362 2.56896C31.1176 1.87177 30.7585 1.23602 30.2194 0.768616C29.6803 0.301212 28.9941 0.0306602 28.276 0.00245218C27.558 -0.0257558 26.852 0.190101 26.2767 0.613726C25.7014 1.03735 25.292 1.64291 25.1172 2.32857L13.1979 49.2307H3.12792C2.29834 49.2307 1.50275 49.5548 0.916147 50.1319C0.329548 50.7089 0 51.4915 0 52.3076C0 53.1236 0.329548 53.9063 0.916147 54.4833C1.50275 55.0604 2.29834 55.3845 3.12792 55.3845H15.6396C16.3371 55.3844 17.0146 55.155 17.5643 54.7327C18.1141 54.3104 18.5045 53.7194 18.6737 53.0538L27.5374 18.1748L37.5781 77.4288C37.6938 78.1188 38.0449 78.7494 38.5737 79.2168C39.1025 79.6841 39.7773 79.9604 40.487 80C40.5457 80 40.6043 80 40.6649 80C41.3441 79.9995 42.0046 79.7815 42.5466 79.379C43.0887 78.9766 43.4829 78.4115 43.6697 77.7692L53.4053 44.2537L56.4629 53.2807C56.6705 53.8933 57.0688 54.4262 57.6015 54.8038C58.1341 55.1814 58.774 55.3846 59.4305 55.3845H69.3519C69.9253 56.9801 70.9337 58.3899 72.2666 59.4597C73.5996 60.5296 75.2059 61.2184 76.91 61.4509C78.6141 61.6834 80.3503 61.4505 81.929 60.7778C83.5076 60.1051 84.8679 59.0185 85.8611 57.6366C86.8542 56.2548 87.4422 54.6309 87.5605 52.9426C87.6789 51.2543 87.3231 49.5664 86.5321 48.0636C85.7411 46.5607 84.5454 45.3007 83.0756 44.4212C81.6057 43.5417 79.9184 43.0766 78.198 43.0768Z" fill="#343C6A"/>
</svg>
