<svg width="44" height="40" viewBox="0 0 44 40" fill="none" xmlns="http://www.w3.org/2000/svg">
<path d="M33.0969 14.1766C33.1461 13.9634 33.1854 13.7339 33.1854 13.488C33.1854 11.1024 30.6284 9.15942 27.4912 9.15942C26.1242 9.15942 24.767 9.57754 23.7541 10.2743C22.7018 9.56114 21.3643 9.15942 19.9776 9.15942C18.4926 9.15942 17.0863 9.59393 16.034 10.3973C14.9522 11.217 14.3621 12.3156 14.3621 13.488C14.3621 13.7995 14.4015 14.1028 14.4703 14.3816C12.9066 15.1685 11.933 16.5212 11.933 17.9968C11.933 18.7838 12.1592 19.4889 12.6313 20.1365C12.1789 20.7759 11.933 21.5137 11.933 22.2598C11.933 23.7436 12.828 25.0634 14.3818 25.8832C14.3621 26.1045 14.3621 26.3177 14.3621 26.5226C14.3621 27.6949 14.962 28.7934 16.034 29.6133C17.0862 30.4084 18.4828 30.8511 19.9776 30.8511C21.3643 30.8511 22.692 30.4494 23.7541 29.7362C24.7768 30.4412 26.1242 30.8511 27.4912 30.8511C30.6284 30.8511 33.1854 28.9083 33.1854 26.5308C33.1854 26.3833 33.1756 26.2357 33.1559 26.0963C34.9753 25.3421 36.1456 23.8747 36.1456 22.2679C36.1456 21.5219 35.8997 20.7922 35.4473 20.1446C35.9193 19.497 36.1456 18.792 36.1456 18.0049C36.1457 16.3736 34.936 14.8898 33.0969 14.1766ZM33.5002 20.6447C33.9525 21.112 34.1886 21.6694 34.1886 22.2597C34.1886 23.3746 33.2052 24.3993 31.7496 24.8011C31.2776 24.9322 30.9924 25.3339 31.0907 25.7439C31.1497 26.0226 31.2186 26.2931 31.2186 26.5226C31.2186 28.0065 29.5468 29.2116 27.4913 29.2116C26.3505 29.2116 25.1901 28.7689 24.541 28.0802C24.3639 27.8917 24.0886 27.7769 23.7935 27.7687C23.7837 27.7687 23.7837 27.7687 23.7739 27.7687C23.4886 27.7687 23.2133 27.867 23.0461 28.072C22.2888 28.8016 21.1775 29.2279 19.9974 29.2279C17.9813 29.2279 16.3488 28.0229 16.3488 26.539C16.3488 26.2439 16.3488 25.9406 16.4275 25.7766C16.6242 25.3749 16.4078 24.9158 15.9358 24.7273C14.677 24.2272 13.9197 23.309 13.9197 22.2679C13.9197 21.6777 14.1558 21.1202 14.6081 20.6529C14.9032 20.3496 14.9032 19.9234 14.6081 19.62C14.1361 19.1363 13.9197 18.6198 13.9197 18.005C13.9197 16.9639 14.7458 16.0047 16.0342 15.5702C16.2801 15.4883 16.4767 15.3243 16.575 15.1193C16.6734 14.9143 16.6734 14.6848 16.5652 14.4799C16.4078 14.1848 16.339 13.8733 16.339 13.488C16.339 12.0041 17.9813 10.799 19.9876 10.799C21.1579 10.799 22.2691 11.2171 23.0363 11.9549C23.233 12.1434 23.5083 12.2501 23.8034 12.2418C24.0985 12.2336 24.3639 12.1189 24.5508 11.9302C25.2097 11.2416 26.3604 10.7989 27.5011 10.7989C29.5566 10.7989 31.2284 12.004 31.2284 13.4879C31.2284 13.7912 31.1104 14.0781 30.9727 14.4143C30.894 14.6274 30.9137 14.8652 31.0415 15.0619C31.1694 15.2586 31.3857 15.4062 31.6513 15.4636C33.1462 15.7998 34.1886 16.8408 34.1886 17.9968C34.1886 18.6116 33.9722 19.1199 33.5002 19.6118C33.2051 19.9151 33.2051 20.3414 33.5002 20.6447Z" fill="#B1B1B1" fill-opacity="0.694118"/>
<path d="M25.7505 18.587L23.6459 19.1773L24.944 16.1277C25.1211 15.7014 24.8555 15.2259 24.3441 15.0784C23.8328 14.9308 23.2624 15.1521 23.0853 15.5784L21.1086 20.2184C20.9807 20.5218 21.0692 20.8497 21.3348 21.071C21.6004 21.3005 21.9937 21.3743 22.3477 21.2759L24.4425 20.6856L23.0755 23.8583C22.8886 24.2846 23.1542 24.7519 23.6656 24.9076C23.7737 24.9404 23.8918 24.9568 23.9999 24.9568C24.4031 24.9568 24.7768 24.7437 24.944 24.4075L26.9896 19.6445C27.1175 19.3493 27.029 19.0133 26.7634 18.7919C26.4979 18.5625 26.1046 18.4887 25.7505 18.587Z" fill="#B1B1B1" fill-opacity="0.694118"/>
<path d="M22.3872 4.71615C22.6823 4.92106 23.0854 4.96205 23.4296 4.82271L23.5575 4.77353L23.0461 6.38033C22.9084 6.81484 23.2232 7.26574 23.7444 7.38049C23.8329 7.39688 23.9116 7.40509 24.0001 7.40509C24.4328 7.40509 24.8361 7.15918 24.9343 6.79025L25.9964 3.47008C26.0948 3.15853 25.9669 2.83066 25.6719 2.62566C25.377 2.42066 24.9638 2.37976 24.6197 2.5191L24.4623 2.58467L24.9343 1.01885C25.072 0.584344 24.7573 0.14164 24.2262 0.0268859C23.705 -0.0878682 23.174 0.174426 23.0363 0.617131L22.0529 3.87992C21.9642 4.19148 22.0921 4.51123 22.3872 4.71615Z" fill="#B1B1B1" fill-opacity="0.694118"/>
<path d="M5.25541 5.64255L7.01577 6.56886C6.69128 6.67542 6.45521 6.9296 6.40603 7.22468C6.35685 7.54444 6.5339 7.85591 6.85839 8.02804L10.3496 9.84796C10.5168 9.92993 10.6938 9.97091 10.8708 9.97091C11.1953 9.97091 11.5199 9.83157 11.7068 9.58559C11.992 9.20026 11.8543 8.69198 11.3921 8.45428L9.73013 7.58526C10.0546 7.4787 10.2809 7.23272 10.33 6.93764C10.3792 6.61788 10.2022 6.3064 9.87767 6.13427L6.30777 4.25698C5.84557 4.01108 5.24567 4.12583 4.95059 4.51108C4.65551 4.89649 4.79321 5.39657 5.25541 5.64255Z" fill="#B1B1B1" fill-opacity="0.694118"/>
<path d="M10.3595 30.1625L6.78962 32.0398C6.45529 32.2119 6.28808 32.5234 6.33726 32.8431C6.38644 33.1383 6.6225 33.3842 6.95683 33.4907L5.27506 34.3434C4.81286 34.5729 4.66532 35.0812 4.95057 35.4666C5.12762 35.7207 5.45211 35.8601 5.78653 35.8601C5.95375 35.8601 6.1307 35.8273 6.30775 35.7535L9.87765 33.9336C10.212 33.7697 10.389 33.4499 10.3398 33.1302C10.2907 32.8187 10.035 32.5564 9.68093 32.458L11.4118 31.548C11.874 31.3021 12.0117 30.802 11.7166 30.4167C11.4216 30.0313 10.8217 29.9166 10.3595 30.1625Z" fill="#B1B1B1" fill-opacity="0.694118"/>
<path d="M25.6718 35.2206C25.3767 35.0157 24.9637 34.9747 24.6196 35.114L24.4622 35.1796L24.9342 33.6138C25.0719 33.1793 24.7572 32.7366 24.2261 32.6218C23.7049 32.5071 23.1739 32.7694 23.0362 33.2121L22.0527 36.4748C21.9642 36.7864 22.0921 37.1061 22.3871 37.3111C22.6822 37.516 23.0853 37.557 23.4295 37.4176L23.5574 37.3684L23.046 38.9752C22.9083 39.4098 23.223 39.8607 23.7443 39.9754C23.8328 39.9918 23.9115 40 24 40C24.4327 40 24.836 39.7541 24.9342 39.3852L25.9963 36.065C26.0948 35.7535 25.9669 35.4256 25.6718 35.2206Z" fill="#B1B1B1" fill-opacity="0.694118"/>
<path d="M37.2077 9.97099C37.3848 9.97099 37.5716 9.93001 37.729 9.83985L41.2202 8.01993C41.5447 7.85599 41.7217 7.53624 41.6725 7.21657C41.6233 6.90501 41.3677 6.65091 41.0136 6.55255L42.7445 5.65075C43.2067 5.40485 43.3444 4.90477 43.0493 4.51944C42.7542 4.13411 42.1543 4.02755 41.6921 4.26534L38.1222 6.14263C37.7879 6.31476 37.6207 6.62632 37.6698 6.946C37.7289 7.24936 37.9747 7.50345 38.3189 7.60181L36.6864 8.45435C36.2242 8.69206 36.0865 9.20034 36.3717 9.58567C36.5587 9.83165 36.8832 9.97099 37.2077 9.97099Z" fill="#B1B1B1" fill-opacity="0.694118"/>
<path d="M42.7347 34.3434L41.1022 33.4909C41.4464 33.3925 41.7021 33.1384 41.7513 32.8351C41.8005 32.5153 41.6235 32.2038 41.299 32.0317L37.7291 30.1544C37.2669 29.9085 36.667 30.0233 36.3719 30.4085C36.0768 30.7938 36.2145 31.2939 36.6768 31.5398L38.4077 32.4498C38.0537 32.5482 37.7979 32.8024 37.7487 33.1138C37.6996 33.4336 37.8766 33.7451 38.2011 33.9172L41.6923 35.7371C41.8595 35.8191 42.0365 35.8601 42.2135 35.8601C42.5478 35.8601 42.8626 35.7289 43.0495 35.4747C43.3346 35.0894 43.1969 34.5811 42.7347 34.3434Z" fill="#B1B1B1" fill-opacity="0.694118"/>
</svg>
