<svg width="47" height="49" viewBox="0 0 47 49" fill="none" xmlns="http://www.w3.org/2000/svg">
<g id="Iconly/Light-outline/Home">
<g id="Home">
<path id="Home_2" fill-rule="evenodd" clip-rule="evenodd" d="M39.4705 15.6377C40.7707 16.6974 41.5683 18.2715 41.7041 19.9844L41.7236 20.3948V36.9507C41.7236 41.2178 38.5196 44.6886 34.5045 44.9132H30.6428C28.7973 44.8744 27.3049 43.3636 27.1691 41.4648L27.1497 41.1769V35.3398C27.1497 34.7049 26.7014 34.1761 26.1018 34.0719L25.9271 34.0515H20.7438C20.1247 34.0719 19.6202 34.5415 19.5426 35.154L19.5232 35.3398V41.1586C19.5232 41.279 19.5018 41.4219 19.4843 41.524L19.4649 41.5669L19.4436 41.7078C19.2127 43.4452 17.8542 44.7703 16.1659 44.8948L15.9137 44.9132H12.44C8.38415 44.9132 5.06573 41.5669 4.85226 37.359V20.3948C4.86973 18.6574 5.58969 17.0444 6.79286 15.9215L18.8828 5.69278C21.3473 3.63274 24.8016 3.55107 27.3418 5.44778L27.6542 5.69278L39.4705 15.6377ZM39.0048 37.2774L39.0261 36.9507V20.4132C39.0048 19.5373 38.6574 18.7186 38.0558 18.1082L37.8036 17.8815L25.9659 7.9182C24.4911 6.67278 22.3952 6.61357 20.8428 7.69361L20.5497 7.9182L8.75092 17.9244C8.07365 18.4532 7.66613 19.2494 7.5691 20.0865L7.54775 20.4132V36.9507C7.54775 39.6661 9.56597 41.8915 12.1295 42.0549H15.9136C16.3406 42.0549 16.7093 41.7506 16.7656 41.3219L16.8063 40.9544L16.8257 40.8503V35.3398C16.8257 33.1552 18.417 31.379 20.4546 31.2136H25.9271C28.0016 31.2136 29.6899 32.8898 29.8471 35.0336V41.1769C29.8471 41.6057 30.1382 41.9752 30.5263 42.0549H34.1339C36.7343 42.0549 38.8495 39.954 39.0048 37.2774Z" fill="#B2B1B9"/>
</g>
</g>
</svg>
