<svg width="38" height="41" viewBox="0 0 38 41" fill="none" xmlns="http://www.w3.org/2000/svg">
<path fill-rule="evenodd" clip-rule="evenodd" d="M35.4705 11.6377C36.7707 12.6974 37.5683 14.2715 37.7041 15.9844L37.7236 16.3948V32.9507C37.7236 37.2178 34.5196 40.6886 30.5045 40.9132H26.6428C24.7973 40.8744 23.3049 39.3636 23.1691 37.4648L23.1497 37.1769V31.3398C23.1497 30.7049 22.7014 30.1761 22.1018 30.0719L21.9271 30.0515H16.7438C16.1247 30.0719 15.6202 30.5415 15.5426 31.154L15.5232 31.3398V37.1586C15.5232 37.279 15.5018 37.4219 15.4843 37.524L15.4649 37.5669L15.4436 37.7078C15.2127 39.4452 13.8542 40.7703 12.1659 40.8948L11.9137 40.9132H8.43999C4.38415 40.9132 1.06573 37.5669 0.852264 33.359V16.3948C0.86973 14.6574 1.58969 13.0444 2.79286 11.9215L14.8828 1.69278C17.3473 -0.367263 20.8016 -0.44893 23.3418 1.44778L23.6542 1.69278L35.4705 11.6377ZM35.0048 33.2774L35.0261 32.9507V16.4132C35.0048 15.5373 34.6574 14.7186 34.0558 14.1082L33.8036 13.8815L21.9659 3.9182C20.4911 2.67278 18.3952 2.61357 16.8428 3.69361L16.5497 3.9182L4.75092 13.9244C4.07365 14.4532 3.66613 15.2494 3.5691 16.0865L3.54775 16.4132V32.9507C3.54775 35.6661 5.56597 37.8915 8.12949 38.0549H11.9136C12.3406 38.0549 12.7093 37.7506 12.7656 37.3219L12.8063 36.9544L12.8257 36.8503V31.3398C12.8257 29.1552 14.417 27.379 16.4546 27.2136H21.9271C24.0016 27.2136 25.6899 28.8898 25.8471 31.0336V37.1769C25.8471 37.6057 26.1382 37.9752 26.5263 38.0549H30.1339C32.7343 38.0549 34.8495 35.954 35.0048 33.2774Z" fill="#343C6A"/>
</svg>
