<svg width="40" height="40" viewBox="0 0 40 40" fill="none" xmlns="http://www.w3.org/2000/svg">
<path d="M15.5167 24.5L18.0167 27L24.6833 20.3333" stroke="#006ABC" stroke-width="1.5" stroke-linecap="round" stroke-linejoin="round"/>
<path d="M16.6667 10H23.3333C26.6667 10 26.6667 8.33334 26.6667 6.66667C26.6667 3.33334 25 3.33334 23.3333 3.33334H16.6667C15 3.33334 13.3333 3.33334 13.3333 6.66667C13.3333 10 15 10 16.6667 10Z" stroke="#006ABC" stroke-width="1.5" stroke-miterlimit="10" stroke-linecap="round" stroke-linejoin="round"/>
<path d="M26.6667 6.7C32.2167 7 35 9.05 35 16.6667V26.6667C35 33.3333 33.3333 36.6667 25 36.6667H15C6.66667 36.6667 5 33.3333 5 26.6667V16.6667C5 9.06666 7.78333 7 13.3333 6.7" stroke="#006ABC" stroke-width="1.5" stroke-miterlimit="10" stroke-linecap="round" stroke-linejoin="round"/>
</svg>
