<svg width="217" height="40" viewBox="0 0 217 40" fill="none" xmlns="http://www.w3.org/2000/svg">
<path d="M51.824 31.192C50.16 31.192 48.56 30.9253 47.024 30.392C45.5093 29.8587 44.336 29.1547 43.504 28.28L44.432 26.456C45.2427 27.2667 46.32 27.928 47.664 28.44C49.008 28.9307 50.3947 29.176 51.824 29.176C53.8293 29.176 55.3333 28.8133 56.336 28.088C57.3387 27.3413 57.84 26.3813 57.84 25.208C57.84 24.312 57.5627 23.5973 57.008 23.064C56.4747 22.5307 55.8133 22.1253 55.024 21.848C54.2347 21.5493 53.136 21.2293 51.728 20.888C50.0427 20.4613 48.6987 20.056 47.696 19.672C46.6933 19.2667 45.8293 18.6587 45.104 17.848C44.4 17.0373 44.048 15.9387 44.048 14.552C44.048 13.4213 44.3467 12.3973 44.944 11.48C45.5413 10.5413 46.4587 9.79467 47.696 9.24C48.9333 8.68533 50.4693 8.408 52.304 8.408C53.584 8.408 54.832 8.58933 56.048 8.952C57.2853 9.29333 58.352 9.77333 59.248 10.392L58.448 12.28C57.5093 11.6613 56.5067 11.2027 55.44 10.904C54.3733 10.584 53.328 10.424 52.304 10.424C50.3413 10.424 48.8587 10.808 47.856 11.576C46.8747 12.3227 46.384 13.2933 46.384 14.488C46.384 15.384 46.6507 16.1093 47.184 16.664C47.7387 17.1973 48.4213 17.6133 49.232 17.912C50.064 18.1893 51.1733 18.4987 52.56 18.84C54.2027 19.2453 55.5253 19.6507 56.528 20.056C57.552 20.44 58.416 21.0373 59.12 21.848C59.824 22.6373 60.176 23.7147 60.176 25.08C60.176 26.2107 59.8667 27.2453 59.248 28.184C58.6507 29.1013 57.7227 29.8373 56.464 30.392C55.2053 30.9253 53.6587 31.192 51.824 31.192ZM70.9035 29.976C70.4768 30.36 69.9542 30.6587 69.3355 30.872C68.7168 31.064 68.0662 31.16 67.3835 31.16C65.8048 31.16 64.5888 30.7333 63.7355 29.88C62.8822 29.0267 62.4555 27.8213 62.4555 26.264V10.488H64.7275V14.168H69.8155V16.088H64.7275V26.136C64.7275 27.1387 64.9728 27.9067 65.4635 28.44C65.9542 28.952 66.6688 29.208 67.6075 29.208C68.6315 29.208 69.4635 28.92 70.1035 28.344L70.9035 29.976ZM87.9498 14.168V31H85.7738V27.928C85.1764 28.952 84.3551 29.752 83.3098 30.328C82.2644 30.8827 81.0698 31.16 79.7258 31.16C77.5284 31.16 75.7898 30.552 74.5098 29.336C73.2511 28.0987 72.6218 26.296 72.6218 23.928V14.168H74.8938V23.704C74.8938 25.4747 75.3311 26.8187 76.2058 27.736C77.0804 28.6533 78.3284 29.112 79.9498 29.112C81.7204 29.112 83.1178 28.5787 84.1418 27.512C85.1658 26.424 85.6778 24.92 85.6778 23V14.168H87.9498ZM107.433 7.256V31H105.257V27.672C104.574 28.8027 103.668 29.6667 102.537 30.264C101.428 30.8613 100.169 31.16 98.761 31.16C97.1823 31.16 95.753 30.7973 94.473 30.072C93.193 29.3467 92.1903 28.3333 91.465 27.032C90.7397 25.7307 90.377 24.248 90.377 22.584C90.377 20.92 90.7397 19.4373 91.465 18.136C92.1903 16.8347 93.193 15.832 94.473 15.128C95.753 14.4027 97.1823 14.04 98.761 14.04C100.126 14.04 101.353 14.328 102.441 14.904C103.55 15.4587 104.457 16.28 105.161 17.368V7.256H107.433ZM98.953 29.144C100.126 29.144 101.182 28.8773 102.121 28.344C103.081 27.7893 103.828 27.0107 104.361 26.008C104.916 25.0053 105.193 23.864 105.193 22.584C105.193 21.304 104.916 20.1627 104.361 19.16C103.828 18.1573 103.081 17.3893 102.121 16.856C101.182 16.3013 100.126 16.024 98.953 16.024C97.7583 16.024 96.681 16.3013 95.721 16.856C94.7823 17.3893 94.0357 18.1573 93.481 19.16C92.9477 20.1627 92.681 21.304 92.681 22.584C92.681 23.864 92.9477 25.0053 93.481 26.008C94.0357 27.0107 94.7823 27.7893 95.721 28.344C96.681 28.8773 97.7583 29.144 98.953 29.144ZM126.689 14.168V28.952C126.689 31.8107 126.038 33.9227 124.737 35.288C123.435 36.6747 121.473 37.368 118.849 37.368C117.377 37.368 115.979 37.1333 114.657 36.664C113.355 36.216 112.299 35.5867 111.489 34.776L112.641 33.048C113.366 33.7733 114.262 34.3387 115.329 34.744C116.395 35.1493 117.537 35.352 118.753 35.352C120.694 35.352 122.123 34.8507 123.041 33.848C123.958 32.8667 124.417 31.3307 124.417 29.24V27.288C123.819 28.2693 122.998 29.0267 121.953 29.56C120.929 30.0933 119.766 30.36 118.465 30.36C116.267 30.36 114.529 29.752 113.249 28.536C111.99 27.2987 111.361 25.496 111.361 23.128V14.168H113.633V22.904C113.633 24.6747 114.07 26.0187 114.945 26.936C115.819 27.8533 117.067 28.312 118.689 28.312C120.459 28.312 121.857 27.7787 122.881 26.712C123.905 25.624 124.417 24.12 124.417 22.2V14.168H126.689ZM139.676 8.6C142.534 8.6 144.774 9.28267 146.396 10.648C148.017 12.0133 148.828 13.8907 148.828 16.28C148.828 18.6693 148.017 20.5467 146.396 21.912C144.774 23.256 142.534 23.928 139.676 23.928H133.66V31H131.292V8.6H139.676ZM139.612 21.848C141.83 21.848 143.526 21.368 144.7 20.408C145.873 19.4267 146.46 18.0507 146.46 16.28C146.46 14.4667 145.873 13.08 144.7 12.12C143.526 11.1387 141.83 10.648 139.612 10.648H133.66V21.848H139.612ZM166.708 14.168V31H164.532V27.928C163.935 28.952 163.114 29.752 162.068 30.328C161.023 30.8827 159.828 31.16 158.484 31.16C156.287 31.16 154.548 30.552 153.268 29.336C152.01 28.0987 151.38 26.296 151.38 23.928V14.168H153.652V23.704C153.652 25.4747 154.09 26.8187 154.964 27.736C155.839 28.6533 157.087 29.112 158.708 29.112C160.479 29.112 161.876 28.5787 162.9 27.512C163.924 26.424 164.436 24.92 164.436 23V14.168H166.708ZM175.568 31.16C174.053 31.16 172.88 30.7333 172.048 29.88C171.237 29.0267 170.832 27.8427 170.832 26.328V7.256H173.104V26.136C173.104 27.1387 173.338 27.9067 173.808 28.44C174.277 28.952 174.981 29.208 175.92 29.208C176.517 29.208 177.029 29.112 177.456 28.92L177.616 30.808C176.954 31.0427 176.272 31.16 175.568 31.16ZM182.979 31.16C181.613 31.16 180.301 30.968 179.043 30.584C177.805 30.1787 176.835 29.6773 176.131 29.08L177.155 27.288C177.859 27.8427 178.744 28.3013 179.811 28.664C180.877 29.0053 181.987 29.176 183.139 29.176C184.675 29.176 185.805 28.9413 186.531 28.472C187.277 27.9813 187.651 27.2987 187.651 26.424C187.651 25.8053 187.448 25.3253 187.043 24.984C186.637 24.6213 186.125 24.3547 185.507 24.184C184.888 23.992 184.067 23.8107 183.043 23.64C181.677 23.384 180.579 23.128 179.747 22.872C178.915 22.5947 178.2 22.136 177.603 21.496C177.027 20.856 176.739 19.9707 176.739 18.84C176.739 17.432 177.325 16.28 178.499 15.384C179.672 14.488 181.304 14.04 183.395 14.04C184.483 14.04 185.571 14.1893 186.659 14.488C187.747 14.7653 188.643 15.1387 189.347 15.608L188.355 17.432C186.968 16.472 185.315 15.992 183.395 15.992C181.944 15.992 180.845 16.248 180.099 16.76C179.373 17.272 179.011 17.944 179.011 18.776C179.011 19.416 179.213 19.928 179.619 20.312C180.045 20.696 180.568 20.984 181.187 21.176C181.805 21.3467 182.659 21.528 183.747 21.72C185.091 21.976 186.168 22.232 186.979 22.488C187.789 22.744 188.483 23.1813 189.059 23.8C189.635 24.4187 189.923 25.272 189.923 26.36C189.923 27.832 189.304 29.0053 188.067 29.88C186.851 30.7333 185.155 31.16 182.979 31.16ZM199.083 29.144C200.128 29.144 201.088 28.9627 201.963 28.6C202.859 28.216 203.616 27.6613 204.235 26.936L205.515 28.408C204.768 29.304 203.84 29.9867 202.731 30.456C201.622 30.9253 200.395 31.16 199.051 31.16C197.323 31.16 195.787 30.7973 194.443 30.072C193.099 29.3253 192.054 28.3013 191.307 27C190.56 25.6987 190.187 24.2267 190.187 22.584C190.187 20.9413 190.539 19.4693 191.243 18.168C191.968 16.8667 192.96 15.8533 194.219 15.128C195.478 14.4027 196.907 14.04 198.507 14.04C200 14.04 201.344 14.3813 202.539 15.064C203.755 15.7467 204.715 16.696 205.419 17.912C206.144 19.128 206.528 20.5147 206.571 22.072L192.747 24.76C193.174 26.1253 193.942 27.2027 195.051 27.992C196.182 28.76 197.526 29.144 199.083 29.144ZM198.507 15.992C197.334 15.992 196.278 16.2693 195.339 16.824C194.422 17.3573 193.696 18.1147 193.163 19.096C192.651 20.056 192.395 21.1653 192.395 22.424C192.395 22.744 192.406 22.9787 192.427 23.128L204.299 20.824C204.043 19.416 203.392 18.264 202.347 17.368C201.302 16.4507 200.022 15.992 198.507 15.992Z" fill="#343C6A"/>
<path d="M34.9758 24.3076C34.1082 24.3088 33.2622 24.5608 32.5539 25.029C31.8455 25.4972 31.3095 26.1588 31.0192 26.923H27.5898L25.1109 19.971C25.0163 19.7061 24.8336 19.4765 24.5893 19.3157C24.3451 19.1549 24.0522 19.0714 23.7535 19.0774C23.4549 19.0834 23.1661 19.1787 22.9295 19.3492C22.6929 19.5197 22.5209 19.7565 22.4387 20.0249L18.5468 32.7554L13.9711 7.09181C13.918 6.7955 13.7574 6.52531 13.5163 6.32666C13.2752 6.12802 12.9682 6.01303 12.6471 6.00104C12.3259 5.98905 12.0101 6.08079 11.7528 6.26083C11.4955 6.44087 11.3124 6.69824 11.2342 6.98964L5.90304 26.923H1.39903C1.02799 26.923 0.672137 27.0608 0.409767 27.306C0.147398 27.5513 0 27.8839 0 28.2307C0 28.5776 0.147398 28.9102 0.409767 29.1554C0.672137 29.4007 1.02799 29.5384 1.39903 29.5384H6.99516C7.30714 29.5384 7.61015 29.4409 7.85604 29.2614C8.10192 29.0819 8.27657 28.8308 8.35222 28.5478L12.3167 13.7243L16.8076 38.9073C16.8594 39.2005 17.0164 39.4685 17.2529 39.6671C17.4895 39.8658 17.7913 39.9832 18.1087 40C18.135 40 18.1612 40 18.1883 40C18.4921 39.9998 18.7875 39.9071 19.0299 39.7361C19.2724 39.5651 19.4487 39.3249 19.5322 39.0519L23.8867 24.8078L25.2543 28.6443C25.3471 28.9047 25.5253 29.1311 25.7635 29.2916C26.0018 29.4521 26.288 29.5384 26.5816 29.5384H31.0192C31.2757 30.2165 31.7267 30.8157 32.3229 31.2704C32.9191 31.7251 33.6375 32.0178 34.3997 32.1166C35.1619 32.2154 35.9385 32.1165 36.6446 31.8306C37.3506 31.5447 37.959 31.0828 38.4033 30.4956C38.8475 29.9083 39.1104 29.2182 39.1634 28.5006C39.2163 27.7831 39.0572 27.0657 38.7034 26.427C38.3496 25.7883 37.8148 25.2528 37.1574 24.879C36.5 24.5052 35.7453 24.3076 34.9758 24.3076Z" fill="#343C6A"/>
</svg>
