<svg width="240" height="80" viewBox="0 0 240 80" fill="none" xmlns="http://www.w3.org/2000/svg">
<path d="M101.539 60.35C100.239 60.35 98.9885 60.1416 97.7885 59.725C96.6052 59.3083 95.6885 58.7583 95.0385 58.075L95.7635 56.65C96.3969 57.2833 97.2385 57.8 98.2885 58.2C99.3385 58.5833 100.422 58.775 101.539 58.775C103.105 58.775 104.28 58.4916 105.064 57.925C105.847 57.3416 106.239 56.5916 106.239 55.675C106.239 54.975 106.022 54.4166 105.589 54C105.172 53.5833 104.655 53.2666 104.039 53.05C103.422 52.8166 102.564 52.5666 101.464 52.3C100.147 51.9666 99.0969 51.65 98.3135 51.35C97.5302 51.0333 96.8552 50.5583 96.2885 49.925C95.7385 49.2916 95.4635 48.4333 95.4635 47.35C95.4635 46.4666 95.6969 45.6666 96.1635 44.95C96.6302 44.2166 97.3469 43.6333 98.3135 43.2C99.2802 42.7666 100.48 42.55 101.914 42.55C102.914 42.55 103.889 42.6916 104.839 42.975C105.805 43.2416 106.639 43.6166 107.339 44.1L106.714 45.575C105.98 45.0916 105.197 44.7333 104.364 44.5C103.53 44.25 102.714 44.125 101.914 44.125C100.38 44.125 99.2219 44.425 98.4385 45.025C97.6719 45.6083 97.2885 46.3666 97.2885 47.3C97.2885 48 97.4969 48.5666 97.9135 49C98.3469 49.4166 98.8802 49.7416 99.5135 49.975C100.164 50.1916 101.03 50.4333 102.114 50.7C103.397 51.0166 104.43 51.3333 105.214 51.65C106.014 51.95 106.689 52.4166 107.239 53.05C107.789 53.6666 108.064 54.5083 108.064 55.575C108.064 56.4583 107.822 57.2666 107.339 58C106.872 58.7166 106.147 59.2916 105.164 59.725C104.18 60.1416 102.972 60.35 101.539 60.35ZM118.194 59.4C117.861 59.7 117.453 59.9333 116.969 60.1C116.486 60.25 115.978 60.325 115.444 60.325C114.211 60.325 113.261 59.9916 112.594 59.325C111.928 58.6583 111.594 57.7166 111.594 56.5V44.175H113.369V47.05H117.344V48.55H113.369V56.4C113.369 57.1833 113.561 57.7833 113.944 58.2C114.328 58.6 114.886 58.8 115.619 58.8C116.419 58.8 117.069 58.575 117.569 58.125L118.194 59.4ZM133.262 47.05V60.2H131.562V57.8C131.095 58.6 130.453 59.225 129.637 59.675C128.82 60.1083 127.887 60.325 126.837 60.325C125.12 60.325 123.762 59.85 122.762 58.9C121.778 57.9333 121.287 56.525 121.287 54.675V47.05H123.062V54.5C123.062 55.8833 123.403 56.9333 124.087 57.65C124.77 58.3666 125.745 58.725 127.012 58.725C128.395 58.725 129.487 58.3083 130.287 57.475C131.087 56.625 131.487 55.45 131.487 53.95V47.05H133.262ZM150.233 41.65V60.2H148.533V57.6C148 58.4833 147.291 59.1583 146.408 59.625C145.541 60.0916 144.558 60.325 143.458 60.325C142.225 60.325 141.108 60.0416 140.108 59.475C139.108 58.9083 138.325 58.1166 137.758 57.1C137.191 56.0833 136.908 54.925 136.908 53.625C136.908 52.325 137.191 51.1666 137.758 50.15C138.325 49.1333 139.108 48.35 140.108 47.8C141.108 47.2333 142.225 46.95 143.458 46.95C144.525 46.95 145.483 47.175 146.333 47.625C147.2 48.0583 147.908 48.7 148.458 49.55V41.65H150.233ZM143.608 58.75C144.525 58.75 145.35 58.5416 146.083 58.125C146.833 57.6916 147.416 57.0833 147.833 56.3C148.266 55.5166 148.483 54.625 148.483 53.625C148.483 52.625 148.266 51.7333 147.833 50.95C147.416 50.1666 146.833 49.5666 146.083 49.15C145.35 48.7166 144.525 48.5 143.608 48.5C142.675 48.5 141.833 48.7166 141.083 49.15C140.35 49.5666 139.766 50.1666 139.333 50.95C138.916 51.7333 138.708 52.625 138.708 53.625C138.708 54.625 138.916 55.5166 139.333 56.3C139.766 57.0833 140.35 57.6916 141.083 58.125C141.833 58.5416 142.675 58.75 143.608 58.75ZM167.026 47.05V58.6C167.026 60.8333 166.518 62.4833 165.501 63.55C164.485 64.6333 162.951 65.175 160.901 65.175C159.751 65.175 158.66 64.9916 157.626 64.625C156.61 64.275 155.785 63.7833 155.151 63.15L156.051 61.8C156.618 62.3666 157.318 62.8083 158.151 63.125C158.985 63.4416 159.876 63.6 160.826 63.6C162.343 63.6 163.46 63.2083 164.176 62.425C164.893 61.6583 165.251 60.4583 165.251 58.825V57.3C164.785 58.0666 164.143 58.6583 163.326 59.075C162.526 59.4916 161.618 59.7 160.601 59.7C158.885 59.7 157.526 59.225 156.526 58.275C155.543 57.3083 155.051 55.9 155.051 54.05V47.05H156.826V53.875C156.826 55.2583 157.168 56.3083 157.851 57.025C158.535 57.7416 159.51 58.1 160.776 58.1C162.16 58.1 163.251 57.6833 164.051 56.85C164.851 56 165.251 54.825 165.251 53.325V47.05H167.026ZM178.923 42.7C181.156 42.7 182.906 43.2333 184.173 44.3C185.439 45.3666 186.073 46.8333 186.073 48.7C186.073 50.5666 185.439 52.0333 184.173 53.1C182.906 54.15 181.156 54.675 178.923 54.675H174.223V60.2H172.373V42.7H178.923ZM178.873 53.05C180.606 53.05 181.931 52.675 182.848 51.925C183.764 51.1583 184.223 50.0833 184.223 48.7C184.223 47.2833 183.764 46.2 182.848 45.45C181.931 44.6833 180.606 44.3 178.873 44.3H174.223V53.05H178.873ZM201.792 47.05V60.2H200.092V57.8C199.625 58.6 198.984 59.225 198.167 59.675C197.35 60.1083 196.417 60.325 195.367 60.325C193.65 60.325 192.292 59.85 191.292 58.9C190.309 57.9333 189.817 56.525 189.817 54.675V47.05H191.592V54.5C191.592 55.8833 191.934 56.9333 192.617 57.65C193.3 58.3666 194.275 58.725 195.542 58.725C196.925 58.725 198.017 58.3083 198.817 57.475C199.617 56.625 200.017 55.45 200.017 53.95V47.05H201.792ZM210.463 60.325C209.28 60.325 208.363 59.9916 207.713 59.325C207.08 58.6583 206.763 57.7333 206.763 56.55V41.65H208.538V56.4C208.538 57.1833 208.722 57.7833 209.088 58.2C209.455 58.6 210.005 58.8 210.738 58.8C211.205 58.8 211.605 58.725 211.938 58.575L212.063 60.05C211.547 60.2333 211.013 60.325 210.463 60.325ZM218.003 60.325C216.937 60.325 215.912 60.175 214.928 59.875C213.962 59.5583 213.203 59.1666 212.653 58.7L213.453 57.3C214.003 57.7333 214.695 58.0916 215.528 58.375C216.362 58.6416 217.228 58.775 218.128 58.775C219.328 58.775 220.212 58.5916 220.778 58.225C221.362 57.8416 221.653 57.3083 221.653 56.625C221.653 56.1416 221.495 55.7666 221.178 55.5C220.862 55.2166 220.462 55.0083 219.978 54.875C219.495 54.725 218.853 54.5833 218.053 54.45C216.987 54.25 216.128 54.05 215.478 53.85C214.828 53.6333 214.27 53.275 213.803 52.775C213.353 52.275 213.128 51.5833 213.128 50.7C213.128 49.6 213.587 48.7 214.503 48C215.42 47.3 216.695 46.95 218.328 46.95C219.178 46.95 220.028 47.0666 220.878 47.3C221.728 47.5166 222.428 47.8083 222.978 48.175L222.203 49.6C221.12 48.85 219.828 48.475 218.328 48.475C217.195 48.475 216.337 48.675 215.753 49.075C215.187 49.475 214.903 50 214.903 50.65C214.903 51.15 215.062 51.55 215.378 51.85C215.712 52.15 216.12 52.375 216.603 52.525C217.087 52.6583 217.753 52.8 218.603 52.95C219.653 53.15 220.495 53.35 221.128 53.55C221.762 53.75 222.303 54.0916 222.753 54.575C223.203 55.0583 223.428 55.725 223.428 56.575C223.428 57.725 222.945 58.6416 221.978 59.325C221.028 59.9916 219.703 60.325 218.003 60.325ZM232.335 58.75C233.151 58.75 233.901 58.6083 234.585 58.325C235.285 58.025 235.876 57.5916 236.36 57.025L237.36 58.175C236.776 58.875 236.051 59.4083 235.185 59.775C234.318 60.1416 233.36 60.325 232.31 60.325C230.96 60.325 229.76 60.0416 228.71 59.475C227.66 58.8916 226.843 58.0916 226.26 57.075C225.676 56.0583 225.385 54.9083 225.385 53.625C225.385 52.3416 225.66 51.1916 226.21 50.175C226.776 49.1583 227.551 48.3666 228.535 47.8C229.518 47.2333 230.635 46.95 231.885 46.95C233.051 46.95 234.101 47.2166 235.035 47.75C235.985 48.2833 236.735 49.025 237.285 49.975C237.851 50.925 238.151 52.0083 238.185 53.225L227.385 55.325C227.718 56.3916 228.318 57.2333 229.185 57.85C230.068 58.45 231.118 58.75 232.335 58.75ZM231.885 48.475C230.968 48.475 230.143 48.6916 229.41 49.125C228.693 49.5416 228.126 50.1333 227.71 50.9C227.31 51.65 227.11 52.5166 227.11 53.5C227.11 53.75 227.118 53.9333 227.135 54.05L236.41 52.25C236.21 51.15 235.701 50.25 234.885 49.55C234.068 48.8333 233.068 48.475 231.885 48.475Z" fill="#B2B1B9"/>
<path d="M78.198 43.0768C76.2583 43.0795 74.3669 43.6724 72.7831 44.7741C71.1994 45.8758 70.0009 47.4325 69.3519 49.2307H61.6846L56.1423 32.8729C55.9309 32.2496 55.5223 31.7093 54.9762 31.331C54.4302 30.9526 53.7753 30.7562 53.1076 30.7704C52.4398 30.7846 51.7942 31.0086 51.2652 31.4098C50.7363 31.811 50.3517 32.3682 50.1679 32.9998L41.4665 62.9538L31.2362 2.56896C31.1176 1.87177 30.7585 1.23602 30.2194 0.768616C29.6803 0.301212 28.9941 0.0306602 28.276 0.00245218C27.558 -0.0257558 26.852 0.190101 26.2767 0.613726C25.7014 1.03735 25.292 1.64291 25.1172 2.32857L13.1979 49.2307H3.12792C2.29834 49.2307 1.50275 49.5548 0.916147 50.1319C0.329548 50.7089 0 51.4915 0 52.3076C0 53.1236 0.329548 53.9063 0.916147 54.4833C1.50275 55.0604 2.29834 55.3845 3.12792 55.3845H15.6396C16.3371 55.3844 17.0146 55.155 17.5643 54.7327C18.1141 54.3104 18.5045 53.7194 18.6737 53.0538L27.5374 18.1748L37.5781 77.4288C37.6938 78.1188 38.0449 78.7494 38.5737 79.2168C39.1025 79.6841 39.7773 79.9604 40.487 80C40.5457 80 40.6043 80 40.6649 80C41.3441 79.9995 42.0046 79.7815 42.5466 79.379C43.0887 78.9766 43.4829 78.4115 43.6697 77.7692L53.4053 44.2537L56.4629 53.2807C56.6705 53.8933 57.0688 54.4262 57.6015 54.8038C58.1341 55.1814 58.774 55.3846 59.4305 55.3845H69.3519C69.9253 56.9801 70.9337 58.3899 72.2666 59.4597C73.5996 60.5296 75.2059 61.2184 76.91 61.4509C78.6141 61.6834 80.3503 61.4505 81.929 60.7778C83.5076 60.1051 84.8679 59.0185 85.8611 57.6366C86.8542 56.2548 87.4422 54.6309 87.5605 52.9426C87.6789 51.2543 87.3231 49.5664 86.5321 48.0636C85.7411 46.5607 84.5454 45.3007 83.0756 44.4212C81.6057 43.5417 79.9184 43.0766 78.198 43.0768Z" fill="#B2B1B9"/>
</svg>
