<svg width="40" height="28" viewBox="0 0 40 28" fill="none" xmlns="http://www.w3.org/2000/svg">
<path d="M30.625 15.25H28.125C27.78 15.25 27.5 14.97 27.5 14.625C27.5 14.28 27.78 14 28.125 14H30.625C30.97 14 31.25 14.28 31.25 14.625C31.25 14.97 30.97 15.25 30.625 15.25ZM25 14.625C25 14.28 24.72 14 24.375 14H21.875C21.53 14 21.25 14.28 21.25 14.625C21.25 14.97 21.53 15.25 21.875 15.25H24.375C24.72 15.25 25 14.97 25 14.625ZM18.75 20.875C18.75 20.53 18.47 20.25 18.125 20.25H15.625C15.28 20.25 15 20.53 15 20.875C15 21.22 15.28 21.5 15.625 21.5H18.125C18.47 21.5 18.75 21.22 18.75 20.875ZM12.5 20.875C12.5 20.53 12.22 20.25 11.875 20.25H9.375C9.03 20.25 8.75 20.53 8.75 20.875C8.75 21.22 9.03 21.5 9.375 21.5H11.875C12.22 21.5 12.5 21.22 12.5 20.875ZM31.25 20.875C31.25 20.53 30.97 20.25 30.625 20.25H28.125C27.78 20.25 27.5 20.53 27.5 20.875C27.5 21.22 27.78 21.5 28.125 21.5H30.625C30.97 21.5 31.25 21.22 31.25 20.875ZM25 20.875C25 20.53 24.72 20.25 24.375 20.25H21.875C21.53 20.25 21.25 20.53 21.25 20.875C21.25 21.22 21.53 21.5 21.875 21.5H24.375C24.72 21.5 25 21.22 25 20.875ZM31.25 8.375C31.25 8.03 30.97 7.75 30.625 7.75H28.125C27.78 7.75 27.5 8.03 27.5 8.375C27.5 8.72 27.78 9 28.125 9H30.625C30.97 9 31.25 8.72 31.25 8.375ZM25 8.375C25 8.03 24.72 7.75 24.375 7.75H21.875C21.53 7.75 21.25 8.03 21.25 8.375C21.25 8.72 21.53 9 21.875 9H24.375C24.72 9 25 8.72 25 8.375ZM40 2.125V27.125C40 27.47 39.72 27.75 39.375 27.75H0.625C0.28 27.75 0 27.47 0 27.125V2.125C0 1.78 0.28 1.5 0.625 1.5H8.75V0.875C8.75 0.53 9.03 0.25 9.375 0.25C9.72 0.25 10 0.53 10 0.875V1.5H30V0.875C30 0.53 30.28 0.25 30.625 0.25C30.97 0.25 31.25 0.53 31.25 0.875V1.5H39.375C39.72 1.5 40 1.78 40 2.125ZM38.75 2.75H31.25V3.375C31.25 3.72 30.97 4 30.625 4C30.28 4 30 3.72 30 3.375V2.75H10V3.375C10 3.72 9.72 4 9.375 4C9.03 4 8.75 3.72 8.75 3.375V2.75H1.25V26.5H38.75V2.75ZM8.935 15.065C9.18125 15.3112 9.58 15.3112 9.82625 15.065L11.6087 13.2825C11.855 13.0362 11.855 12.6375 11.6087 12.3913C11.3625 12.145 10.9638 12.145 10.7175 12.3913L8.935 14.1737C8.68875 14.42 8.68875 14.8187 8.935 15.065ZM13.3913 10.6087C13.6375 10.855 14.0362 10.855 14.2825 10.6087L16.065 8.82625C16.3113 8.58 16.3113 8.18125 16.065 7.935C15.8188 7.68875 15.42 7.68875 15.1737 7.935L13.3913 9.7175C13.145 9.96375 13.145 10.3625 13.3913 10.6087ZM16.065 15.065C16.3113 14.8187 16.3113 14.42 16.065 14.1737L14.2825 12.3913C14.0362 12.145 13.6375 12.145 13.3913 12.3913C13.145 12.6375 13.145 13.0362 13.3913 13.2825L15.1737 15.065C15.42 15.3112 15.8188 15.3112 16.065 15.065ZM11.6087 10.6087C11.855 10.3625 11.855 9.96375 11.6087 9.7175L9.82625 7.935C9.58 7.68875 9.18125 7.68875 8.935 7.935C8.68875 8.18125 8.68875 8.58 8.935 8.82625L10.7175 10.6087C10.9638 10.855 11.3625 10.855 11.6087 10.6087Z" fill="#B1B1B1"/>
</svg>
