<svg width="40" height="40" viewBox="0 0 40 40" fill="none" xmlns="http://www.w3.org/2000/svg">
<path d="M30.625 21.25H28.125C27.78 21.25 27.5 20.97 27.5 20.625C27.5 20.28 27.78 20 28.125 20H30.625C30.97 20 31.25 20.28 31.25 20.625C31.25 20.97 30.97 21.25 30.625 21.25ZM25 20.625C25 20.28 24.72 20 24.375 20H21.875C21.53 20 21.25 20.28 21.25 20.625C21.25 20.97 21.53 21.25 21.875 21.25H24.375C24.72 21.25 25 20.97 25 20.625ZM18.75 26.875C18.75 26.53 18.47 26.25 18.125 26.25H15.625C15.28 26.25 15 26.53 15 26.875C15 27.22 15.28 27.5 15.625 27.5H18.125C18.47 27.5 18.75 27.22 18.75 26.875ZM12.5 26.875C12.5 26.53 12.22 26.25 11.875 26.25H9.375C9.03 26.25 8.75 26.53 8.75 26.875C8.75 27.22 9.03 27.5 9.375 27.5H11.875C12.22 27.5 12.5 27.22 12.5 26.875ZM31.25 26.875C31.25 26.53 30.97 26.25 30.625 26.25H28.125C27.78 26.25 27.5 26.53 27.5 26.875C27.5 27.22 27.78 27.5 28.125 27.5H30.625C30.97 27.5 31.25 27.22 31.25 26.875ZM25 26.875C25 26.53 24.72 26.25 24.375 26.25H21.875C21.53 26.25 21.25 26.53 21.25 26.875C21.25 27.22 21.53 27.5 21.875 27.5H24.375C24.72 27.5 25 27.22 25 26.875ZM31.25 14.375C31.25 14.03 30.97 13.75 30.625 13.75H28.125C27.78 13.75 27.5 14.03 27.5 14.375C27.5 14.72 27.78 15 28.125 15H30.625C30.97 15 31.25 14.72 31.25 14.375ZM25 14.375C25 14.03 24.72 13.75 24.375 13.75H21.875C21.53 13.75 21.25 14.03 21.25 14.375C21.25 14.72 21.53 15 21.875 15H24.375C24.72 15 25 14.72 25 14.375ZM40 8.125V33.125C40 33.47 39.72 33.75 39.375 33.75H0.625C0.28 33.75 0 33.47 0 33.125V8.125C0 7.78 0.28 7.5 0.625 7.5H8.75V6.875C8.75 6.53 9.03 6.25 9.375 6.25C9.72 6.25 10 6.53 10 6.875V7.5H30V6.875C30 6.53 30.28 6.25 30.625 6.25C30.97 6.25 31.25 6.53 31.25 6.875V7.5H39.375C39.72 7.5 40 7.78 40 8.125ZM38.75 8.75H31.25V9.375C31.25 9.72 30.97 10 30.625 10C30.28 10 30 9.72 30 9.375V8.75H10V9.375C10 9.72 9.72 10 9.375 10C9.03 10 8.75 9.72 8.75 9.375V8.75H1.25V32.5H38.75V8.75ZM8.935 21.065C9.18125 21.3112 9.58 21.3112 9.82625 21.065L11.6087 19.2825C11.855 19.0362 11.855 18.6375 11.6087 18.3913C11.3625 18.145 10.9638 18.145 10.7175 18.3913L8.935 20.1737C8.68875 20.42 8.68875 20.8187 8.935 21.065ZM13.3913 16.6087C13.6375 16.855 14.0362 16.855 14.2825 16.6087L16.065 14.8263C16.3113 14.58 16.3113 14.1812 16.065 13.935C15.8188 13.6887 15.42 13.6887 15.1737 13.935L13.3913 15.7175C13.145 15.9638 13.145 16.3625 13.3913 16.6087ZM16.065 21.065C16.3113 20.8187 16.3113 20.42 16.065 20.1737L14.2825 18.3913C14.0362 18.145 13.6375 18.145 13.3913 18.3913C13.145 18.6375 13.145 19.0362 13.3913 19.2825L15.1737 21.065C15.42 21.3112 15.8188 21.3112 16.065 21.065ZM11.6087 16.6087C11.855 16.3625 11.855 15.9638 11.6087 15.7175L9.82625 13.935C9.58 13.6887 9.18125 13.6887 8.935 13.935C8.68875 14.1812 8.68875 14.58 8.935 14.8263L10.7175 16.6087C10.9638 16.855 11.3625 16.855 11.6087 16.6087Z" fill="#343C6A"/>
</svg>
