<svg width="37" height="40" viewBox="0 0 37 40" fill="none" xmlns="http://www.w3.org/2000/svg">
<path fill-rule="evenodd" clip-rule="evenodd" d="M19.2206 0H16.874C15.5524 0 14.2854 0.5431 13.3531 1.50915C12.5268 2.3654 12.0214 3.49433 11.9239 4.69561L11.9078 5.08361C11.8897 6.34704 10.9201 7.33269 9.72992 7.33256C9.46001 7.32959 9.17969 7.26475 8.92162 7.1426L8.66847 7.00343C6.32995 5.62033 3.28944 6.46752 1.91744 8.92331L0.6838 11.0139C-0.627964 13.361 0.019014 16.3095 2.13652 17.8282L2.43102 18.023C3.15683 18.4568 3.57175 19.1979 3.57175 20C3.57175 20.7376 3.22033 21.4274 2.63426 21.8457L2.43418 21.9749C0.240376 23.2825 -0.624012 26.1683 0.478735 28.5689L0.639902 28.8884L1.85084 31.0448C2.48025 32.2166 3.55882 33.0994 4.83446 33.4733C5.96511 33.8047 7.17174 33.713 8.24148 33.2168L8.57974 33.0426C9.14905 32.7032 9.7372 32.6218 10.2892 32.7742C10.8412 32.9265 11.3114 33.3 11.5951 33.8115C11.7516 34.0837 11.8434 34.3644 11.8762 34.6553L11.8923 34.9507C11.8895 37.6985 14.1212 40 16.874 40H19.2212C21.8205 40 23.9779 37.9406 24.1889 35.2829L24.2043 34.9396C24.2028 34.2757 24.4306 33.7048 24.8382 33.2844C25.2458 32.8641 25.7994 32.6292 26.3758 32.6321C26.6407 32.6397 26.9318 32.7081 27.2016 32.8325L27.4602 32.9699C29.642 34.2688 32.5011 33.6015 33.9736 31.4177L34.1625 31.114L35.4158 28.9609C36.0906 27.7666 36.2733 26.3635 35.9326 25.046C35.6306 23.8782 34.9385 22.8594 33.9803 22.1682L33.6631 21.9586C33.1118 21.6299 32.7483 21.1416 32.6002 20.5687C32.4521 19.9959 32.5315 19.3858 32.8209 18.8736C32.9811 18.5852 33.1942 18.3451 33.4498 18.1614L33.9386 17.8446C35.9182 16.4585 36.6596 13.7304 35.6176 11.4368L35.5095 11.2135C35.4861 11.1552 35.4591 11.0984 35.4284 11.0435L34.2634 8.95856C32.9671 6.63836 30.1643 5.73795 27.8273 6.87099L27.5161 7.03677C26.9576 7.37375 26.3679 7.45893 25.8128 7.31027C25.2576 7.16162 24.7826 6.79134 24.4925 6.28109C24.3436 6.02232 24.2518 5.74159 24.219 5.4507L24.2029 5.15532C24.2437 3.89936 23.7357 2.55361 22.7967 1.55742C21.8577 0.561228 20.5677 -0.000571534 19.2206 0ZM16.874 2.89547H19.2212C19.8101 2.89522 20.3735 3.14058 20.7836 3.57565C21.1937 4.01073 21.4155 4.59846 21.3987 5.20497L21.4236 5.70908C21.5085 6.47968 21.7278 7.15007 22.0744 7.75232C22.7379 8.91929 23.8304 9.77092 25.1072 10.1128C26.384 10.4547 27.7403 10.2588 28.8768 9.5683L29.0728 9.4653L29.2837 9.37819C30.2116 9.05705 31.3052 9.4635 31.8307 10.4042L32.9419 12.3945L32.966 12.4506L33.1003 12.7177C33.5499 13.7101 33.1742 14.9654 32.2013 15.5523L31.8959 15.7506C31.2481 16.2147 30.7513 16.7743 30.3898 17.4252C29.7294 18.5941 29.5468 19.9973 29.8874 21.3148C30.1971 22.5125 30.9161 23.5495 31.9053 24.239L32.4226 24.5763C32.7876 24.8413 33.0885 25.2843 33.2198 25.792C33.3679 26.3649 33.2885 26.975 32.9991 27.4872L31.7748 29.5914L31.6371 29.8134C31.0706 30.6516 29.9529 30.9629 29.0106 30.5363L28.4103 30.2201C27.7407 29.9093 27.0857 29.7555 26.4201 29.7371C25.0636 29.73 23.7904 30.2703 22.8529 31.237C21.9155 32.2038 21.3917 33.5169 21.3981 34.8841L21.3873 35.1023C21.2988 36.2047 20.3561 37.1045 19.2212 37.1045H16.874C15.7519 37.1045 14.8281 36.2289 14.7099 35.1041L14.6716 34.3969C14.5867 33.6263 14.3674 32.9559 14.0208 32.3537C13.3765 31.1919 12.2904 30.3291 11.015 29.9771C9.73967 29.6251 8.38083 29.8131 7.24053 30.4993L7.03397 30.6036C6.62282 30.7928 6.0958 30.8328 5.60202 30.6881C5.0449 30.5248 4.57385 30.1393 4.2931 29.6168L3.09754 27.4898L2.99059 27.2767C2.5377 26.288 2.91374 25.0326 3.88815 24.4512L4.18418 24.2593C5.57485 23.2681 6.37935 21.6891 6.37935 20C6.37935 18.2859 5.55175 16.6933 4.18752 15.742L3.69217 15.4185C2.81689 14.7893 2.53418 13.5009 3.09945 12.4891L4.3331 10.3985C4.94933 9.2963 6.27723 8.9263 7.31863 9.54171L7.68412 9.74051C8.36677 10.0658 9.03618 10.2207 9.71522 10.228C12.3494 10.2283 14.5035 8.14174 14.7 5.483L14.7256 4.87322C14.7641 4.41481 14.9839 3.92392 15.3432 3.55164C15.7485 3.13161 16.2994 2.89547 16.874 2.89547ZM18.0561 13.4637C14.5558 13.4637 11.7182 16.3901 11.7182 20C11.7182 23.6099 14.5558 26.5364 18.0561 26.5364C21.5565 26.5364 24.3941 23.6099 24.3941 20C24.3941 16.3901 21.5565 13.4637 18.0561 13.4637ZM18.0561 16.3591C20.0059 16.3591 21.5865 17.9892 21.5865 20C21.5865 22.0108 20.0059 23.6409 18.0561 23.6409C16.1064 23.6409 14.5258 22.0108 14.5258 20C14.5258 17.9892 16.1064 16.3591 18.0561 16.3591Z" fill="#B2B1B9"/>
</svg>
