<svg width="40" height="24" viewBox="0 0 40 24" fill="none" xmlns="http://www.w3.org/2000/svg">
<path d="M6.27319 0.363411H1.81872C0.814468 0.363411 0 1.17788 0 2.18214V22.1821C0 23.1855 0.814468 24 1.81872 24H6.27319C7.27745 24 8.09106 23.1855 8.09106 22.1821V2.18214C8.09106 1.17788 7.27745 0.363411 6.27319 0.363411Z" fill="#B1B1B1"/>
<path d="M16.9098 5.81702H12.4553C11.4502 5.81702 10.6366 6.63148 10.6366 7.63574V22.1804C10.6366 23.1855 11.4502 23.9991 12.4553 23.9991H16.9098C17.914 23.9991 18.7277 23.1847 18.7277 22.1804V7.63574C18.7277 6.63148 17.914 5.81702 16.9098 5.81702Z" fill="#B1B1B1"/>
<path d="M27.5447 5.81702H23.0902C22.086 5.81702 21.2723 6.63148 21.2723 7.63574V22.1804C21.2723 23.1855 22.086 23.9991 23.0902 23.9991H27.5447C28.5498 23.9991 29.3634 23.1847 29.3634 22.1804V7.63574C29.3634 6.63148 28.5498 5.81702 27.5447 5.81702Z" fill="#B1B1B1"/>
<path d="M38.1813 0.363411H33.7268C32.7226 0.363411 31.9089 1.17788 31.9089 2.18214V22.1821C31.9089 23.1864 32.7226 24 33.7268 24H38.1813C39.1855 24 40 23.1847 40 22.1821V2.18214C40 1.17788 39.1855 0.363411 38.1813 0.363411Z" fill="#B1B1B1"/>
</svg>
